:SAMPLES-PER-SECOND 30
:FULLY-SPECIFIED
:DEGREES
1209
root  -37.1577 40.1827 -2.16181 -161.693 -87.9822 167.747
RightUpLeg  -25.3709 -17.6123 -0.588139
RightLeg  15.8514 -0.460104 1.39506
RightFoot  4.38405 0.103777 -0.533023
RightToes  5.82063e-011 0 -3.6325e-017
Spine  58.1187 -4.98539 7.66073
Spine1  8.25754 1.69773 -8.11289
HEad  -45.9473 -3.07118 -0.52153
LeftShoulder1  8.05624 -24.5123 -22.2808
LeftArm  -22.1999 -70.2487 -16.1492
LeftForeArm  61.3942 0.321095 -7.76145
LeftHand  -0.244104 0.0205437 5.32207
RightShoulder  4.57556 15.9076 16.901
RightArm  -21.1004 65.5836 18.4849
RightForeArm  27.4104 2.98944 6.21821
RightHand  -4.53306 11.6152 -30.5499
LeftUpLeg  -25.196 18.0917 -4.85576
LeftLeg  15.4545 0.600396 -0.937868
LeftFoot  3.01449 -0.545322 4.18199
LeftToes  1.45487e-011 -6.19069e-011 1.65092e-011
1210
root  -37.3266 40.2603 -2.35871 -162.135 -88.3519 166.492
RightUpLeg  -22.9307 -17.5526 -0.996984
RightLeg  15.7568 -0.933438 1.23223
RightFoot  3.5447 0.0766484 -0.400775
RightToes  5.82063e-011 0 -3.6325e-017
Spine  56.3967 -4.74911 7.54509
Spine1  7.52569 1.53458 -7.76307
HEad  -45.7791 -3.23272 -0.895291
LeftShoulder1  8.41891 -24.1532 -24.0577
LeftArm  -17.1332 -65.0324 -23.4222
LeftForeArm  60.64 -0.250824 -7.05539
LeftHand  -0.244104 0.0205437 5.32207
RightShoulder  5.14183 16.4032 19.334
RightArm  -15.8219 60.1422 23.9088
RightForeArm  26.7266 3.97486 6.40617
RightHand  -4.13043 10.7357 -29.415
LeftUpLeg  -22.7646 17.5702 -3.61385
LeftLeg  15.3092 0.932672 -0.911605
LeftFoot  2.4105 -0.417263 3.33659
LeftToes  1.45487e-011 -6.19069e-011 1.65092e-011
1211
root  -37.5556 40.3364 -2.53108 -154.583 -88.6992 157.247
RightUpLeg  -20.4785 -17.8025 -1.63475
RightLeg  15.7647 -1.06162 1.25366
RightFoot  2.75268 0.0594202 -0.329183
RightToes  5.82063e-011 0 -3.6325e-017
Spine  53.835 -4.60969 7.66185
Spine1  7.79859 1.47628 -7.78537
HEad  -46.023 -3.56512 -0.791528
LeftShoulder1  8.85611 -23.8532 -26.0804
LeftArm  -14.4535 -59.1421 -26.3241
LeftForeArm  60.3419 -1.25692 -6.83909
LeftHand  -0.244104 0.0205437 5.32207
RightShoulder  5.77884 16.6245 22.4158
RightArm  -13.4715 53.9288 25.2199
RightForeArm  26.4777 4.8272 6.47955
RightHand  -3.74835 9.90019 -28.2305
LeftUpLeg  -20.2523 16.9967 -2.66516
LeftLeg  15.1391 1.201 -0.811978
LeftFoot  1.69342 -0.282254 2.38086
LeftToes  1.45487e-011 -6.19069e-011 1.65092e-011
1212
root  -37.8342 40.4166 -2.67497 -143.203 -88.9746 144.029
RightUpLeg  -17.8258 -17.9267 -2.37049
RightLeg  15.8726 -1.23535 1.22558
RightFoot  2.02744 0.0560829 -0.360279
RightToes  5.82063e-011 0 -3.6325e-017
Spine  51.2144 -4.34335 7.77403
Spine1  8.35739 1.50282 -7.55926
HEad  -45.8343 -3.61658 -0.720794
LeftShoulder1  9.16283 -23.1973 -28.0994
LeftArm  -12.9977 -53.0358 -26.9987
LeftForeArm  59.9852 -2.09505 -6.75262
LeftHand  -0.244104 0.0205437 5.32207
RightShoulder  6.18077 16.2904 25.0671
RightArm  -12.6213 47.3312 24.6369
RightForeArm  26.2961 5.34194 6.35848
RightHand  -3.65464 9.73808 -27.8362
LeftUpLeg  -17.4897 16.1965 -1.72425
LeftLeg  14.9285 1.69755 -0.640244
LeftFoot  0.951868 -0.179491 1.61413
LeftToes  1.45487e-011 -6.19069e-011 1.65092e-011
1213
root  -38.1593 40.5022 -2.79903 -144.651 -89.2659 143.532
RightUpLeg  -14.8133 -17.3768 -2.95519
RightLeg  15.6814 -1.95534 1.05786
RightFoot  1.32855 0.0410417 -0.28719
RightToes  5.82063e-011 0 -3.6325e-017
Spine  48.7778 -3.96965 7.84029
Spine1  8.84798 1.58455 -7.02935
HEad  -45.0075 -3.40261 -1.15383
LeftShoulder1  9.15245 -22.184 -29.4605
LeftArm  -12.9554 -46.4658 -26.6299
LeftForeArm  59.0318 -2.71485 -6.28797
LeftHand  -0.244104 0.0205437 5.32207
RightShoulder  6.29391 15.6113 26.8416
RightArm  -12.8699 40.4587 23.0811
RightForeArm  25.7046 5.64815 6.03718
RightHand  -3.4839 9.34931 -27.2535
LeftUpLeg  -14.6333 15.5399 -0.571672
LeftLeg  14.8577 2.11248 -0.466606
LeftFoot  0.141322 -0.114111 1.12729
LeftToes  1.45487e-011 -6.19069e-011 1.65092e-011
1214
root  -38.5279 40.5808 -2.90798 -153.63 -89.502 150.923
RightUpLeg  -12.0697 -16.4789 -3.3901
RightLeg  15.2872 -2.85997 0.917783
RightFoot  0.607549 0.0123956 -0.0784429
RightToes  5.82063e-011 0 -3.6325e-017
Spine  46.0702 -3.48696 7.75681
Spine1  8.92901 1.61039 -6.33108
HEad  -43.4061 -2.97045 -1.82373
LeftShoulder1  9.08227 -21.1258 -30.7455
LeftArm  -13.7217 -39.4767 -24.733
LeftForeArm  57.242 -2.97888 -5.72892
LeftHand  -0.244104 0.0205437 5.32207
RightShoulder  6.32236 14.9226 28.279
RightArm  -13.9482 33.2523 20.514
RightForeArm  24.194 5.95947 5.61758
RightHand  -3.03587 8.19389 -25.8315
LeftUpLeg  -12.1753 15.2377 0.445583
LeftLeg  14.8666 2.22354 -0.359185
LeftFoot  -0.66745 -0.074577 0.842625
LeftToes  1.45487e-011 -6.19069e-011 1.65092e-011
1215
root  -38.9302 40.6435 -2.99467 -133.41 -89.3713 130.013
RightUpLeg  -10.5459 -16.0184 -3.99181
RightLeg  15.31 -3.22915 0.87315
RightFoot  -0.258363 -0.0109667 0.094353
RightToes  5.82063e-011 0 -3.6325e-017
Spine  42.3706 -2.78664 7.15909
Spine1  8.90133 1.47573 -5.41524
HEad  -41.3242 -2.49739 -2.35194
LeftShoulder1  9.01678 -20.0184 -32.2315
LeftArm  -14.2487 -32.8056 -21.1721
LeftForeArm  54.5091 -2.5358 -5.45077
LeftHand  -0.244104 0.0205437 5.32207
RightShoulder  6.23806 14.0879 29.4647
RightArm  -15.4648 26.1924 17.3035
RightForeArm  21.3761 6.26119 5.18722
RightHand  -2.60852 6.98 -24.442
LeftUpLeg  -10.5177 14.8001 0.692516
LeftLeg  14.5562 2.54775 -0.309117
LeftFoot  -1.21758 -0.0524954 0.676381
LeftToes  1.45487e-011 -6.19069e-011 1.65092e-011
1216
root  -39.3524 40.7041 -3.05563 -106.748 -88.7291 103.403
RightUpLeg  -10.0398 -16.0073 -4.88687
RightLeg  15.7237 -3.17374 0.86424
RightFoot  -1.2203 -0.0241217 0.178316
RightToes  5.82063e-011 0 -3.6325e-017
Spine  37.7628 -1.9526 5.95148
Spine1  9.41885 1.20182 -4.22799
HEad  -39.3014 -2.03538 -2.78145
LeftShoulder1  8.74722 -18.677 -33.3484
LeftArm  -14.6291 -26.8034 -16.9573
LeftForeArm  51.082 -1.75567 -5.24852
LeftHand  -0.244104 0.0205437 5.32207
RightShoulder  5.82079 12.752 29.8231
RightArm  -17.1189 20.1075 14.2005
RightForeArm  17.6391 6.3741 4.78042
RightHand  -2.32667 6.11052 -23.4733
LeftUpLeg  -9.37696 13.6006 0.252061
LeftLeg  13.6817 3.6958 -0.309174
LeftFoot  -1.40384 -0.0358154 0.509925
LeftToes  1.45487e-011 -6.19069e-011 1.65092e-011
1217
root  -39.7816 40.7847 -3.10102 -101.814 -88.1264 98.4495
RightUpLeg  -9.21628 -15.6873 -5.7509
RightLeg  15.6947 -3.42984 0.91087
RightFoot  -1.95702 -0.0362008 0.277959
RightToes  5.82063e-011 0 -3.6325e-017
Spine  33.4385 -1.31589 4.69416
Spine1  10.1739 0.912016 -3.11595
HEad  -37.4489 -1.50862 -3.26837
LeftShoulder1  8.24143 -17.2298 -33.6755
LeftArm  -15.6095 -20.8138 -13.0487
LeftForeArm  47.6921 -1.67071 -4.6889
LeftHand  -0.244104 0.0205437 5.32207
RightShoulder  5.12295 11.0338 29.2516
RightArm  -18.6701 15.0788 11.408
RightForeArm  13.668 6.22541 4.42521
RightHand  -2.0073 5.14952 -22.121
LeftUpLeg  -7.96046 11.7565 0.0182738
LeftLeg  12.4525 5.48826 -0.437164
LeftFoot  -1.43313 -0.0132157 0.252246
LeftToes  1.45487e-011 -6.19069e-011 1.65092e-011
1218
root  -40.2081 40.8842 -3.14238 -105.166 -88.0081 101.253
RightUpLeg  -7.41033 -14.6907 -6.26228
RightLeg  14.8506 -4.19628 1.06306
RightFoot  -2.3063 -0.0494079 0.429439
RightToes  5.82063e-011 0 -3.6325e-017
Spine  30.3041 -0.995656 3.91781
Spine1  10.2015 0.712535 -2.4327
HEad  -35.3885 -0.766691 -3.66815
LeftShoulder1  7.67159 -15.9195 -33.4401
LeftArm  -17.0912 -14.4599 -9.45316
LeftForeArm  44.8121 -2.52097 -3.77517
LeftHand  -0.244104 0.0205437 5.32207
RightShoulder  4.42148 9.48057 28.0447
RightArm  -19.9148 10.3427 8.79089
RightForeArm  9.33077 5.99514 4.14195
RightHand  -1.67386 4.14627 -20.4525
LeftUpLeg  -5.96133 10.1204 0.459636
LeftLeg  11.2417 7.1263 -0.735755
LeftFoot  -1.54061 0.0123008 -0.0352146
LeftToes  1.45487e-011 -6.19069e-011 1.65092e-011
